<svg width="30" height="30" viewBox="0 0 30 30" fill="none" xmlns="http://www.w3.org/2000/svg">
<path d="M24.7225 5.27744C26.1289 6.68395 26.919 8.59153 26.919 10.5806C26.919 12.5696 26.1289 14.4772 24.7225 15.8837L22.07 18.5337L15.8837 24.7224C14.4733 26.11 12.5718 26.8841 10.5932 26.8761C8.61471 26.868 6.71952 26.0785 5.32048 24.6794C3.92144 23.2804 3.1319 21.3852 3.12384 19.4067C3.11579 17.4281 3.88986 15.5266 5.27747 14.1162L14.115 5.27744C15.5217 3.87095 17.4295 3.08081 19.4187 3.08081C21.408 3.08081 23.3157 3.87095 24.7225 5.27744ZM18.535 18.5349L11.465 11.4649L7.04497 15.8837C6.10726 16.8214 5.58046 18.0932 5.58046 19.4193C5.58046 20.7454 6.10726 22.0172 7.04497 22.9549C7.98267 23.8926 9.25447 24.4194 10.5806 24.4194C11.9067 24.4194 13.1785 23.8926 14.1162 22.9549L18.535 18.5349Z" fill="#EC3641"/>
</svg>
